Coordinates
version=1
nRows=26
nColumns=38
inDegrees=no

Units are S.I. units (second, meters, Newtons, ...)
If the header above contains a line with 'inDegrees', this indicates whether rotational values are in degrees (yes) or radians (no).

endheader
time	pelvis_tilt	pelvis_list	pelvis_rotation	pelvis_tx	pelvis_ty	pelvis_tz	hip_flexion_r	hip_adduction_r	hip_rotation_r	knee_angle_r	ankle_angle_r	subtalar_angle_r	mtp_angle_r	hip_flexion_l	hip_adduction_l	hip_rotation_l	knee_angle_l	ankle_angle_l	subtalar_angle_l	mtp_angle_l	lumbar_extension	lumbar_bending	lumbar_rotation	arm_flex_r	arm_add_r	arm_rot_r	elbow_flex_r	pro_sup_r	wrist_flex_r	wrist_dev_r	arm_flex_l	arm_add_l	arm_rot_l	elbow_flex_l	pro_sup_l	wrist_flex_l	wrist_dev_l
0.45	-0.0432103	1.46937	-1.4979	0.803291	0.804255	1.05663	0.185137	0.0287089	-0.155266	0.636137	-0.0909896	0	0	-0.00939163	-0.0427259	-0.159189	1.14683	-0.125758	0	0	-0.34244	0.107506	-0.00532513	-0.228695	-0.218514	-0.392044	0.533306	0.434306	0	0	-0.0777908	-0.693783	0.674261	0.880073	1.10225	0	0
0.46	-0.00800603	1.46673	-1.53749	0.802419	0.794003	1.05748	0.169616	0.0263706	-0.156057	0.63253	-0.0888245	0	0	0.0119065	-0.0404317	-0.162524	1.15681	-0.123091	0	0	-0.346339	0.102398	-0.00191874	-0.227976	-0.219472	-0.389634	0.531503	0.429262	0	0	-0.0903678	-0.686821	0.671337	0.876741	1.10278	0	0
0.47	0.00497626	1.46449	-1.55526	0.801796	0.784087	1.05906	0.150237	0.0274855	-0.152246	0.619762	-0.0821344	0	0	0.0335838	-0.0401629	-0.16749	1.16311	-0.113879	0	0	-0.347969	0.0978988	-0.00201268	-0.220275	-0.217512	-0.399226	0.522689	0.445582	0	0	-0.100795	-0.682312	0.680312	0.873685	1.07678	0	0
0.48	0.0136286	1.4613	-1.56826	0.801139	0.774281	1.06041	0.126921	0.0317301	-0.143051	0.598364	-0.0800759	0	0	0.0533056	-0.0401517	-0.171638	1.16379	-0.107721	0	0	-0.35266	0.0949027	0.000559953	-0.217002	-0.219107	-0.394803	0.519355	0.443529	0	0	-0.112281	-0.673889	0.677052	0.8687	1.07393	0	0
0.49	0.00440809	1.45754	-1.56295	0.800504	0.764544	1.06201	0.0932244	0.0417834	-0.122425	0.552054	-0.0778531	0	0	0.0717461	-0.0426767	-0.17676	1.16025	-0.0985358	0	0	-0.35775	0.0941049	0.00214401	-0.212064	-0.22161	-0.387773	0.513817	0.440759	0	0	-0.123656	-0.663345	0.672973	0.860482	1.0688	0	0
0.5	0.0135615	1.45516	-1.57493	0.800005	0.754831	1.06318	0.0667102	0.0452474	-0.112555	0.519716	-0.0758128	0	0	0.0911042	-0.0422886	-0.181348	1.15274	-0.0913093	0	0	-0.361397	0.0911912	0.00311822	-0.209062	-0.223146	-0.38172	0.510713	0.43889	0	0	-0.134197	-0.654118	0.669705	0.85368	1.06369	0	0
0.51	0.0375358	1.45372	-1.60121	0.79957	0.745073	1.06397	0.0470938	0.0438923	-0.111319	0.501849	-0.0735673	0	0	0.110697	-0.0399711	-0.187336	1.141	-0.0867079	0	0	-0.364031	0.0864737	0.00415924	-0.207485	-0.223654	-0.377759	0.509291	0.436506	0	0	-0.144145	-0.645742	0.666489	0.847908	1.0593	0	0
0.52	0.0672278	1.45211	-1.63322	0.799128	0.735148	1.06437	0.0312297	0.0405594	-0.114653	0.494142	-0.0717742	0	0	0.128766	-0.036691	-0.194047	1.1249	-0.08398	0	0	-0.366716	0.081098	0.00567185	-0.206875	-0.223866	-0.374501	0.508898	0.433281	0	0	-0.153704	-0.638164	0.663691	0.8427	1.05677	0	0
0.53	0.107148	1.45124	-1.67554	0.79886	0.725247	1.06501	0.0185412	0.0345037	-0.122209	0.492025	-0.0623713	0	0	0.146418	-0.0311576	-0.201736	1.10301	-0.0827478	0	0	-0.36522	0.0737476	0.00163929	-0.198571	-0.219177	-0.390079	0.499317	0.46272	0	0	-0.15679	-0.638716	0.696597	0.838545	1.00185	0	0
0.54	0.143006	1.44947	-1.71392	0.798739	0.715401	1.06536	0.00721316	0.0279815	-0.130083	0.493726	-0.0585998	0	0	0.162041	-0.0259181	-0.210693	1.07763	-0.0817691	0	0	-0.366712	0.0674218	-0.000178233	-0.19594	-0.21997	-0.385408	0.498112	0.461427	0	0	-0.168277	-0.630451	0.693494	0.833082	0.992959	0	0
0.55	0.173751	1.44725	-1.74688	0.798653	0.705549	1.06565	-0.00729007	0.0232152	-0.132816	0.488873	-0.0549245	0	0	0.175771	-0.0208914	-0.219932	1.04815	-0.0810137	0	0	-0.368679	0.0615716	-0.00261336	-0.192956	-0.220649	-0.380791	0.497569	0.459637	0	0	-0.17941	-0.62202	0.690409	0.827027	0.984991	0	0
0.56	0.200585	1.44468	-1.77594	0.798576	0.695677	1.06583	-0.0231607	0.0193587	-0.132909	0.481591	-0.051418	0	0	0.187438	-0.0159419	-0.22972	1.01455	-0.0802155	0	0	-0.370976	0.055933	-0.00524726	-0.189976	-0.221408	-0.375826	0.497752	0.457817	0	0	-0.190356	-0.613542	0.68703	0.820819	0.977773	0	0
0.57	0.224345	1.44229	-1.80194	0.798506	0.685806	1.06582	-0.0391148	0.0160857	-0.131478	0.47387	-0.0483533	0	0	0.19759	-0.0111752	-0.240205	0.97689	-0.0791289	0	0	-0.373326	0.0504769	-0.00745451	-0.187253	-0.222073	-0.371041	0.498836	0.45555	0	0	-0.200599	-0.60518	0.683627	0.814849	0.971895	0	0
0.58	0.244213	1.44114	-1.82354	0.798474	0.675891	1.06522	-0.0529831	0.0135252	-0.129783	0.467971	-0.0462556	0	0	0.207851	-0.00726398	-0.251087	0.937418	-0.0776785	0	0	-0.375027	0.0459838	-0.00863646	-0.185373	-0.222836	-0.366615	0.500938	0.452813	0	0	-0.209584	-0.597921	0.681284	0.810154	0.969206	0	0
0.59	0.26198	1.43752	-1.84483	0.798437	0.666038	1.06526	-0.0709504	0.010208	-0.12701	0.459387	-0.0356384	0	0	0.212093	-0.00221576	-0.265266	0.888105	-0.0816425	0	0	-0.377074	0.0400561	-0.0129351	-0.179324	-0.222437	-0.365227	0.500007	0.46261	0	0	-0.212635	-0.59594	0.707612	0.805343	0.92826	0	0
0.6	0.275766	1.43636	-1.86157	0.798506	0.656124	1.0646	-0.0848744	0.00771829	-0.12552	0.453721	-0.0302706	0	0	0.217921	0.00182238	-0.278703	0.837914	-0.0837359	0	0	-0.378129	0.0356771	-0.0148591	-0.1766	-0.223675	-0.359429	0.502738	0.460482	0	0	-0.221548	-0.587529	0.706555	0.798934	0.922554	0	0
0.61	0.285729	1.43531	-1.87433	0.798643	0.646109	1.06377	-0.0986476	0.00561371	-0.124178	0.448564	-0.0252477	0	0	0.22263	0.00534479	-0.291656	0.785733	-0.0866577	0	0	-0.379196	0.0316982	-0.0162635	-0.174703	-0.225059	-0.353373	0.506135	0.458736	0	0	-0.229883	-0.579406	0.705692	0.792481	0.917854	0	0
0.62	0.291083	1.43499	-1.88152	0.798843	0.636105	1.06271	-0.11141	0.00444071	-0.123036	0.444607	-0.0207358	0	0	0.227453	0.00830192	-0.302538	0.733557	-0.0903232	0	0	-0.380077	0.028574	-0.0175843	-0.173014	-0.226446	-0.347056	0.50939	0.456322	0	0	-0.237125	-0.571878	0.705639	0.786521	0.914274	0	0
0.63	0.296355	1.43461	-1.88835	0.799069	0.626106	1.06155	-0.124283	0.00317704	-0.121036	0.440667	-0.0158674	0	0	0.229946	0.0124322	-0.309964	0.676697	-0.0964941	0	0	-0.380734	0.025501	-0.019804	-0.170173	-0.227507	-0.341706	0.512168	0.450588	0	0	-0.244118	-0.563981	0.705317	0.779701	0.910534	0	0
0.64	0.301313	1.43524	-1.89481	0.799368	0.616031	1.06019	-0.135926	0.00197656	-0.118907	0.437654	-0.0117751	0	0	0.232234	0.0166506	-0.314134	0.619388	-0.102766	0	0	-0.380267	0.0227203	-0.0213	-0.168155	-0.228676	-0.336281	0.514931	0.444868	0	0	-0.250638	-0.556464	0.704526	0.773794	0.907744	0	0
0.65	0.303525	1.43664	-1.8986	0.799724	0.605884	1.05871	-0.146552	0.00108132	-0.116977	0.435955	-0.00846569	0	0	0.234909	0.0199131	-0.316703	0.564677	-0.107595	0	0	-0.378986	0.0203022	-0.0219538	-0.167194	-0.230321	-0.328981	0.517599	0.438951	0	0	-0.256706	-0.549054	0.703468	0.767588	0.907556	0	0
0.66	0.306	1.43701	-1.90175	0.800137	0.595722	1.05714	-0.157742	-0.000307101	-0.116912	0.434634	-0.00136825	0	0	0.234353	0.0255739	-0.312176	0.506353	-0.118545	0	0	-0.379335	0.017774	-0.0212525	-0.166123	-0.226696	-0.342656	0.520301	0.452864	0	0	-0.253335	-0.548403	0.729333	0.761796	0.885649	0	0
0.67	0.308992	1.43826	-1.90551	0.800597	0.585478	1.05544	-0.167393	-0.001782	-0.11786	0.434949	0.00372263	0	0	0.234724	0.0310261	-0.306103	0.451716	-0.126238	0	0	-0.378035	0.0150095	-0.0224741	-0.165659	-0.227787	-0.336108	0.522969	0.446447	0	0	-0.25807	-0.543035	0.731321	0.755303	0.883959	0	0
0.68	0.315795	1.43988	-1.91344	0.801064	0.575097	1.0536	-0.175884	-0.00403743	-0.119952	0.436683	0.00848984	0	0	0.235139	0.0369102	-0.298488	0.400521	-0.134035	0	0	-0.376023	0.0116224	-0.0231522	-0.166025	-0.228775	-0.329113	0.525867	0.440352	0	0	-0.26275	-0.53822	0.732178	0.750125	0.881854	0	0
0.69	0.324717	1.44109	-1.92406	0.801521	0.564599	1.0517	-0.184004	-0.00703141	-0.122641	0.439933	0.0125569	0	0	0.234998	0.0427713	-0.291028	0.354126	-0.141496	0	0	-0.374129	0.00743713	-0.0232612	-0.166814	-0.229486	-0.322117	0.528888	0.434164	0	0	-0.267263	-0.533956	0.732959	0.744299	0.881202	0	0
0.7	0.336732	1.44151	-1.93851	0.801983	0.553986	1.04987	-0.192195	-0.0110238	-0.125428	0.444355	0.016627	0	0	0.233223	0.0494038	-0.2815	0.31068	-0.149925	0	0	-0.3726	0.00220768	-0.0228948	-0.16802	-0.230347	-0.313955	0.531752	0.425659	0	0	-0.271859	-0.529973	0.732465	0.73774	0.880575	0	0
